<?xml version="1.0" encoding="UTF-8" standalone="no"?>
<!-- Created with Inkscape (http://www.inkscape.org/) -->

<svg
   xmlns:dc="http://purl.org/dc/elements/1.1/"
   xmlns:cc="http://creativecommons.org/ns#"
   xmlns:rdf="http://www.w3.org/1999/02/22-rdf-syntax-ns#"
   xmlns:svg="http://www.w3.org/2000/svg"
   xmlns="http://www.w3.org/2000/svg"
   xmlns:sodipodi="http://sodipodi.sourceforge.net/DTD/sodipodi-0.dtd"
   xmlns:inkscape="http://www.inkscape.org/namespaces/inkscape"
   width="83.306541mm"
   height="8.1174164mm"
   viewBox="0 0 83.306541 8.1174164"
   version="1.1"
   id="svg8"
   inkscape:version="0.92.3 (2405546, 2018-03-11)"
   sodipodi:docname="logo.svg">
  <defs
     id="defs2" />
  <sodipodi:namedview
     id="base"
     pagecolor="#ffffff"
     bordercolor="#666666"
     borderopacity="1.0"
     inkscape:pageopacity="0.0"
     inkscape:pageshadow="2"
     inkscape:zoom="0.98994949"
     inkscape:cx="196.41724"
     inkscape:cy="-26.999229"
     inkscape:document-units="mm"
     inkscape:current-layer="text817"
     showgrid="false"
     inkscape:window-width="1918"
     inkscape:window-height="1060"
     inkscape:window-x="0"
     inkscape:window-y="18"
     inkscape:window-maximized="0" />
  <metadata
     id="metadata5">
    <rdf:RDF>
      <cc:Work
         rdf:about="">
        <dc:format>image/svg+xml</dc:format>
        <dc:type
           rdf:resource="http://purl.org/dc/dcmitype/StillImage" />
        <dc:title />
      </cc:Work>
    </rdf:RDF>
  </metadata>
  <g
     inkscape:label="Layer 1"
     inkscape:groupmode="layer"
     id="layer1"
     transform="translate(-61.950298,-75.242883)">
    <g
       aria-label="Tyler  Menezes"
       style="font-style:normal;font-weight:normal;font-size:10.58333302px;line-height:1.25;font-family:sans-serif;letter-spacing:0px;word-spacing:0px;fill:#71566e;fill-opacity:1;stroke:none;stroke-width:0.26458332"
       id="text817">
      <path
         d="m 65.728548,75.242883 q -0.328084,0 -0.47625,0.137583 -0.148167,0.127 -0.28575,0.402167 -0.148167,0.28575 -0.3175,0.455083 -0.15875,0.15875 -0.508,0.232833 -0.232834,0.04233 -0.529167,0.0635 -0.28575,0.02117 -0.582083,0.02117 -0.518584,0 -0.931334,-0.04233 -0.148166,0.148166 -0.148166,0.34925 0,0.22225 0.105833,0.529166 0.116417,0.296334 0.243417,0.497417 0.105833,0.02117 0.1905,0.02117 0.07408,0 0.211666,-0.03175 0.22225,-0.05292 0.433917,-0.05292 h 0.8255 q -0.1905,0.433917 -0.391583,0.910167 -0.1905,0.476249 -0.370417,0.963083 -0.179917,0.47625 -0.275167,0.772583 -0.09525,0.296333 -0.09525,0.391583 0,0.116417 0.08467,0.22225 0,0.04233 0.02117,0.1905 0.02117,0.306917 0.0635,0.465667 0.05292,0.15875 0.211666,0.211667 l -0.04233,0.116416 q 0.254,0.0635 0.518583,0.0635 0,0 0.08467,-0.01058 0.04233,0 0.08467,0 0.15875,-0.656167 0.497416,-1.576917 -0.01058,0 -0.03175,0 l -0.02117,-0.01058 q -0.08467,0 -0.148167,0.116417 l -0.08467,-0.05292 0.04233,-0.116417 q 0.116416,-0.28575 0.201083,-0.455083 0.02117,0.03175 0.02117,0.127 0,0.07408 0.01058,0.116417 0.01058,0.04233 0.05292,0.04233 0.04233,0 0.0635,-0.05292 0.03175,-0.0635 0.07408,-0.201083 0.02117,-0.05292 0.04233,-0.116417 0,-0.137583 -0.0635,-0.306916 0.02117,-0.05292 0.03175,-0.148167 0.03175,-0.127 0.0635,-0.1905 0.03175,-0.07408 0.08467,-0.08467 0.02117,0 0.02117,0.03175 v 0.04233 q 0,0.02117 0,0.05292 0,0.07408 0.05292,0.08467 0.07408,0 0.169334,-0.211667 0.09525,-0.211666 0.148166,-0.423333 l -0.09525,-0.05292 q 0.0635,-0.05292 0.127,-0.127 0.07408,-0.08467 0.09525,-0.148167 0.169334,-0.497417 0.296334,-0.656167 0.127,-0.15875 0.402166,-0.1905 0.09525,-0.127 0.232834,-0.127 v 0.116417 h 0.148166 q 0.391584,-0.169333 0.772584,-0.232833 0.381,-0.0635 0.9525,-0.105834 0.508,-0.04233 0.719666,-0.08467 -0.02117,-0.04233 -0.02117,-0.08467 0,-0.07408 0.07408,-0.07408 0.0635,0 0.148167,0.04233 l 0.02117,0.0635 q 0.105834,-0.03175 0.169334,-0.07408 -0.116417,-0.1905 -0.116417,-0.34925 0,-0.15875 0.105833,-0.243417 -0.09525,-0.264583 -0.338666,-0.423333 -0.243417,-0.169334 -0.624417,-0.264584 -0.296333,0.04233 -0.6985,0.127 -0.402167,0.07408 -1.121833,0.22225 l -0.148167,0.03175 z m -0.836084,3.735916 -0.08467,0.1905 -0.0635,-0.07408 0.105833,-0.1905 z"
         style="font-style:normal;font-variant:normal;font-weight:normal;font-stretch:normal;font-family:Flood;-inkscape-font-specification:Flood;fill:#71566e;fill-opacity:1;stroke-width:0.26458332"
         id="path822" />
      <path
         d="m 72.183389,80.693299 q -0.116417,-0.127 -0.116417,-0.22225 0,-0.07408 0.09525,-0.243417 0.01058,-0.02117 0.01058,-0.02117 0.05292,0.04233 0.05292,0.116416 0,0.01058 -0.01058,0.03175 0,0.03175 0,0.03175 l 0.105833,0.07408 q 0.01058,-0.05292 0.01058,-0.127 0.01058,-0.179917 0.0635,-0.264584 0.04233,-0.0635 0.127,-0.179916 0.169334,-0.211667 0.254,-0.381 0.09525,-0.169334 0.09525,-0.381 l 0.148167,0.137583 q 0.08467,-0.254 0.296333,-0.518583 0.22225,-0.275167 0.624417,-0.687917 l 0.04233,-0.05292 -0.148166,-0.07408 0.04233,-0.07408 q 0.08467,-0.1905 0.15875,-0.264583 0.07408,-0.08467 0.243417,-0.08467 0.03175,0 0.0635,0 0.0635,0.01058 0.08467,0.01058 0.34925,-0.402166 0.497417,-0.772583 -0.0635,-0.381 -0.243417,-0.624417 -0.22225,-0.02117 -0.22225,-0.201083 -0.105833,-0.05292 -0.22225,-0.05292 -0.22225,0 -0.47625,0.201084 -0.0635,-0.05292 -0.127,-0.05292 -0.07408,0 -0.137583,0.08467 l -0.423333,0.613833 -0.08467,-0.137583 -1.121833,1.576916 q -0.232834,0.328084 -0.592667,0.529167 -0.359833,0.1905 -0.804333,0.1905 -0.05292,0 -0.09525,-0.01058 -0.05292,0 -0.08467,0 -0.254,-0.328083 -0.254,-0.698499 0,-0.137584 0.03175,-0.338667 l 0.15875,-0.127 q 0.02117,-0.211667 0.08467,-0.381 0.07408,-0.179917 0.1905,-0.41275 0.105833,-0.211667 0.169333,-0.359833 0.0635,-0.15875 0.09525,-0.359834 l -0.169333,-0.296333 q -0.264584,-0.116417 -0.508,-0.211667 -0.148167,-0.0635 -0.243417,-0.09525 -0.08467,-0.03175 -0.105833,-0.03175 -0.04233,0 -0.09525,0.05292 -0.03175,0.03175 -0.0635,0.116417 l -0.148167,-0.0635 q -0.338667,0.560916 -0.529167,1.058333 -0.1905,0.486833 -0.1905,0.9525 0,0.550333 0.306917,1.005417 h 0.127 l 0.6985,0.687916 q 0.05292,0.05292 0.105833,0.05292 0.05292,0 0.08467,-0.05292 0.423333,0.201083 0.878417,0.201083 l 0.07408,0.0635 q -0.179917,0.518584 -0.645583,1.471084 -0.275167,0.5715 -0.423334,0.92075 -0.148166,0.359833 -0.211666,0.6985 0,0.08467 0.105833,0.22225 0.137583,0 0.148167,0.148166 0.3175,0.275167 0.783166,0.275167 0.201084,0 0.328084,-0.0635 0.02117,-0.264583 0.07408,-0.47625 l -0.201083,-0.09525 q 0.08467,-0.53975 0.338666,-0.878417 l 0.127,0.169334 0.04233,-0.07408 -0.08467,-0.211666 q 0.116417,-0.116417 0.254,-0.179917 0.148167,-0.296333 0.254,-0.455083 -0.09525,-0.116417 -0.09525,-0.211667 0,-0.07408 0.04233,-0.127 0.04233,-0.05292 0.127,-0.116417 l 0.01058,-0.01058 0.148166,0.137583 z m -1.143,2.19075 -0.0635,0.169333 -0.08467,-0.04233 0.03175,-0.179917 z m 3.090333,-5.037666 q 0.08467,-0.08467 0.211667,-0.232834 -0.03175,-0.02117 -0.07408,-0.02117 -0.08467,0 -0.1905,0.116416 l -0.01058,0.01058 z m -2.201333,3.312583 -0.09525,0.169333 q 0.01058,0 0.04233,0.01058 0.02117,0 0.03175,0 0.08467,0 0.127,-0.08467 z m -0.613834,1.153583 -0.01058,-0.01058 q -0.08467,0.03175 -0.148167,0.116416 -0.05292,0.08467 -0.05292,0.179917 0,0.09525 0.0635,0.137583 z"
         style="font-style:normal;font-variant:normal;font-weight:normal;font-stretch:normal;font-family:Flood;-inkscape-font-specification:Flood;fill:#71566e;fill-opacity:1;stroke-width:0.26458332"
         id="path824" />
      <path
         d="m 81.245533,79.423299 q 0,-0.02117 -0.03175,-0.02117 -0.05292,0 -0.28575,0.105834 -0.08467,0.04233 -0.127,0.05292 -0.01058,-0.02117 -0.105833,-0.07408 -0.09525,-0.05292 -0.179917,-0.08467 -0.15875,0.04233 -0.391583,0.127 -0.232833,0.07408 -0.5715,0.211667 -0.264583,0.105833 -0.402167,0.15875 l -0.105833,-0.0635 q 0.137583,-0.08467 0.328083,-0.148167 0.1905,-0.07408 0.47625,-0.15875 0.1905,-0.0635 0.232834,-0.07408 v -0.01058 q -0.105834,-0.02117 -0.127,-0.05292 l -0.264584,0.08467 q -0.306916,0.08467 -0.508,0.148166 -0.201083,0.05292 -0.275166,0.05292 -0.07408,0 -0.148167,-0.03175 -0.08467,-0.02117 -0.15875,-0.02117 -0.04233,0 -0.264583,0.09525 -0.22225,0.08467 -0.264584,0.127 -0.116416,-0.201083 -0.41275,-0.201083 -0.15875,0 -0.391583,0.0635 l -0.04233,0.01058 q -0.105834,0.02117 -0.296334,0.07408 -0.1905,0.05292 -0.60325,0.179916 -0.02117,-0.0635 -0.02117,-0.127 0,-0.09525 0.05292,-0.179916 0.05292,-0.08467 0.15875,-0.201084 0.127,-0.127 0.15875,-0.1905 0.03175,-0.0635 0.105834,-0.254 0.08467,-0.232833 0.137583,-0.306916 0.07408,-0.105833 0.306917,-0.359833 0.264583,-0.306917 0.338666,-0.433917 0.07408,-0.127 0.1905,-0.381 0.116417,-0.254 0.243417,-0.53975 0.127,-0.28575 0.211667,-0.497417 0.08467,-0.22225 0.08467,-0.264583 0,-0.41275 -0.243416,-0.6985 -0.232834,-0.28575 -0.656167,-0.28575 v 0.169333 q -0.402167,0.518584 -0.899583,1.248834 -0.486834,0.719666 -0.963084,1.566333 -0.465666,0.836083 -0.79375,1.661583 -0.328083,0.8255 -0.391583,1.481667 h 0.127 q 0.0635,0 0.127,0.07408 0.07408,0.0635 0.179917,0.211667 0.116416,0.148166 0.169333,0.201083 h 0.243417 q 0.0635,0.116417 0.179916,0.116417 0.116417,0 0.275167,-0.02117 0.15875,-0.01058 0.254,-0.02117 0.07408,-0.01058 0.275167,-0.148166 0.15875,-0.105834 0.211666,-0.127 0.550334,-0.22225 1.27,-0.497417 0.73025,-0.275167 1.217084,-0.4445 l 0.03175,-0.01058 q 0.201083,-0.0635 0.328083,-0.09525 0.127,-0.03175 0.28575,-0.03175 0.08467,0 0.264583,-0.07408 0.179917,-0.08467 0.402167,-0.1905 0.02117,-0.01058 0.127,-0.0635 0,0 0.01058,-0.01058 0,0 0,0 0,-0.03175 -0.105833,-0.03175 -0.391583,0.15875 -0.656167,0.15875 -0.232833,0 -0.232833,-0.116417 0,-0.05292 0.05292,-0.105833 0.03175,0.05292 0.179916,0.05292 0.232834,0 0.497417,-0.179917 0.179917,-0.04233 0.391583,-0.116417 0.22225,-0.08467 0.402167,-0.169333 0.179917,-0.09525 0.28575,-0.179917 0.105833,-0.08467 0.105833,-0.137583 z m -2.0955,1.068917 -2.624666,0.867833 -0.01058,-0.04233 q 0.254,-0.127 0.592667,-0.264584 0.34925,-0.148166 0.709083,-0.275166 0.370417,-0.137584 0.656167,-0.22225 0.296333,-0.09525 0.508,-0.137584 z m 1.989667,-1.27 q -0.01058,-0.01058 -0.03175,-0.01058 -0.05292,0 -0.201083,0.05292 -0.148167,0.04233 -0.179917,0.0635 0.08467,0.03175 0.15875,0.09525 0.02117,-0.02117 0.07408,-0.05292 0.179917,-0.105833 0.179917,-0.148166 z m -0.751417,0.105833 q 0.04233,-0.02117 0.04233,-0.04233 0,-0.02117 -0.04233,-0.02117 -0.01058,0 -0.02117,0 -0.02117,0.01058 -0.03175,0.01058 l -0.211667,0.0635 q 0,0 0,0 -0.01058,0 -0.01058,0.01058 0,0.04233 0.09525,0.04233 z m 0.73025,0.560917 q -0.03175,-0.02117 -0.07408,-0.02117 -0.05292,0 -0.169333,0.04233 -0.105834,0.04233 -0.402167,0.169334 0,0 -0.137583,0.0635 v 0.01058 q 0.03175,0.04233 0.08467,0.04233 0.01058,0 0.03175,0 0.02117,-0.01058 0.03175,-0.01058 z m -3.005666,0.04233 q 0.09525,-0.0635 0.201083,-0.0635 0.05292,0 0.09525,0.02117 l -0.232833,0.127 z M 76.8217,78.682466 h -0.148167 q 0,-0.0635 0.03175,-0.127 0.04233,-0.0635 0.116417,-0.0635 z m -0.486833,0.656166 -0.1905,0.402167 q -0.0635,-0.03175 -0.0635,-0.09525 0,-0.0635 0.07408,-0.211667 0.03175,-0.08467 0.05292,-0.127 z"
         style="font-style:normal;font-variant:normal;font-weight:normal;font-stretch:normal;font-family:Flood;-inkscape-font-specification:Flood;fill:#71566e;fill-opacity:1;stroke-width:0.26458332"
         id="path826" />
      <path
         d="m 86.635922,76.735133 q 0,-0.02117 -0.02117,-0.02117 -0.01058,0 -0.05292,0.03175 -0.04233,0.02117 -0.04233,0.02117 -0.179916,0.08467 -0.518583,0.201083 -0.264583,0.09525 -0.359833,0.137583 0,-0.02117 -0.01058,-0.05292 0,-0.03175 0,-0.03175 0,-0.08467 0.15875,-0.127 0.137584,-0.03175 0.254,-0.08467 0.116417,-0.05292 0.243417,-0.169333 0,0 0,-0.01058 0.01058,-0.01058 0.01058,-0.01058 0,-0.02117 -0.03175,-0.02117 -0.0635,-0.01058 -0.243416,-0.0635 -0.211667,-0.0635 -0.275167,-0.0635 -0.0635,0 -0.179917,0.04233 -0.0635,0.02117 -0.08467,0.02117 l -0.09525,-0.201083 q -0.179917,0 -0.486834,-0.03175 -0.306916,-0.03175 -0.433916,-0.0635 0.1905,-0.370417 0.1905,-0.762 -0.201084,-0.0635 -0.423334,-0.116417 -0.15875,-0.04233 -0.28575,-0.0635 -0.116416,-0.02117 -0.1905,-0.02117 -0.105833,0 -0.211666,0.08467 -0.105834,0.07408 -0.254,0.232834 -0.211667,0.211666 -0.381,0.328083 -0.15875,0.105833 -0.359834,0.105833 -0.179916,0.264584 -0.179916,0.550334 0,0.116416 0.03175,0.254 -0.22225,0.47625 -0.613834,1.227666 -0.4445,0.867833 -0.635,1.312333 -0.179916,0.4445 -0.1905,0.8255 0,1.121834 0.550334,1.61925 0.550333,0.486834 1.524,0.486834 0.433916,0 0.98425,-0.15875 0.560916,-0.15875 1.23825,-0.423334 0.201083,-0.07408 0.296333,-0.232833 0.02117,-0.04233 0.02117,-0.05292 0,-0.02117 -0.02117,-0.02117 -0.01058,0 -0.03175,0 -0.01058,0.01058 -0.02117,0.01058 -0.582083,0.201083 -0.92075,0.3175 -0.328083,0.105833 -0.60325,0.179917 -0.137583,0.04233 -0.28575,0.04233 -0.179916,0 -0.306916,-0.0635 0.455083,-0.116417 0.92075,-0.243417 0.47625,-0.137583 0.85725,-0.264583 0.04233,-0.01058 0.04233,-0.03175 0,0 -0.01058,-0.01058 -0.01058,0 -0.01058,0 -0.03175,-0.02117 -0.105833,-0.0635 -0.07408,-0.04233 -0.148167,-0.09525 l 0.719667,-0.264584 q 0.01058,0 0.02117,-0.01058 0.08467,-0.04233 0.137583,-0.07408 0.0635,-0.04233 0.0635,-0.08467 -0.01058,-0.02117 -0.03175,-0.02117 -0.01058,0 -0.03175,0 -0.02117,0.01058 -0.02117,0.01058 l -0.402166,0.127 q -0.635,0.211666 -0.9525,0.306916 -0.306917,0.09525 -0.677334,0.201084 0,0 -0.02117,0 -0.01058,0 -0.01058,0 -0.05292,0 -0.148166,-0.08467 -0.09525,-0.105833 -0.179917,-0.105833 0,0.04233 -0.0635,0.08467 -0.05292,0.04233 -0.105833,0.04233 l -0.0635,-0.105834 q -0.359834,0.08467 -0.592667,0.08467 -0.338667,0 -0.53975,-0.148167 0,-0.09525 0.04233,-0.338666 0.05292,-0.243417 0.127,-0.497417 0.07408,-0.254 0.169334,-0.4445 0.09525,-0.201083 0.1905,-0.243417 0.179916,-0.08467 0.518583,-0.169333 0.34925,-0.08467 0.709083,-0.15875 0.370417,-0.07408 1.471084,-0.254 0.03175,-0.01058 0.05292,-0.01058 l 0.07408,-0.232834 q -0.127,-0.0635 -0.127,-0.201083 0,0 0,-0.03175 0.01058,-0.02117 0.01058,-0.04233 -0.169333,-0.296333 -0.28575,-0.391583 -0.116417,-0.09525 -0.338667,-0.09525 -0.105833,0 -0.296333,0.05292 -0.1905,0.05292 -0.47625,0.137584 -0.338667,0.105833 -0.518583,0.15875 -0.179917,0.04233 -0.3175,0.05292 0.15875,-0.264583 0.41275,-0.66675 0.01058,-0.02117 0.03175,-0.05292 0.359833,-0.105834 1.068916,-0.232834 0.613834,-0.116416 1.005417,-0.211666 0.402167,-0.105834 0.804333,-0.28575 0.03175,-0.02117 0.105834,-0.0635 0.169333,-0.105834 0.169333,-0.1905 z m -0.878417,-0.03175 -0.1905,0.08467 -0.03175,-0.127 q 0.01058,0 0.03175,0 0.03175,-0.01058 0.04233,-0.01058 0.137583,0 0.148166,0.05292 z m -3.683,3.185583 q 0.03175,-0.15875 0.201084,-0.15875 -0.03175,0.07408 -0.137584,0.211666 -0.03175,0.04233 -0.05292,0.0635 h -0.01058 z m -0.105833,0.899583 -0.05292,0.28575 q -0.0635,-0.05292 -0.0635,-0.169333 0,-0.07408 0.03175,-0.22225 z m 3.175,-0.0635 q 0,-0.01058 0.01058,-0.02117 0,-0.01058 0,-0.01058 0,-0.02117 -0.02117,-0.02117 0,0 -0.01058,0.01058 0,0 -0.01058,0 -0.306917,0.127 -0.656167,0.243416 -0.34925,0.105834 -0.709083,0.179917 0.0635,0.09525 0.1905,0.09525 0.127,0 0.28575,-0.07408 0.15875,-0.07408 0.3175,-0.1905 0.1905,0 0.34925,-0.05292 0.169333,-0.0635 0.254,-0.15875 z m -1.8415,-2.995083 -0.179917,0.296333 -0.137583,0.03175 0.179917,-0.296333 z m -0.381,0.47625 -0.105833,0.243417 -0.137584,0.02117 q 0.02117,-0.08467 0.105834,-0.169333 0.08467,-0.09525 0.137583,-0.09525 z m -0.762,1.862666 -0.148167,0.497417 -0.07408,-0.09525 0.116417,-0.391583 z"
         style="font-style:normal;font-variant:normal;font-weight:normal;font-stretch:normal;font-family:Flood;-inkscape-font-specification:Flood;fill:#71566e;fill-opacity:1;stroke-width:0.26458332"
         id="path828" />
      <path
         d="m 91.43133,78.195633 q 0.243417,-0.211667 0.613834,-0.560917 0.232833,-0.22225 0.359833,-0.328083 0.0635,-0.05292 0.09525,-0.15875 0.04233,-0.105834 0.04233,-0.211667 0,-0.179917 -0.07408,-0.306917 -0.0635,-0.127 -0.22225,-0.28575 -0.02117,0.09525 -0.09525,0.09525 -0.05292,0 -0.105833,-0.04233 0.07408,-0.07408 0.08467,-0.148167 l -0.201083,-0.08467 q 0,0.116416 -0.15875,0.116416 -0.07408,0 -0.15875,-0.02117 l 0.07408,-0.169334 q -0.264583,-0.07408 -0.60325,-0.07408 -0.243416,0 -0.518583,0.08467 -0.264583,0.07408 -0.60325,0.22225 -0.04233,-0.09525 -0.0635,-0.34925 -0.03175,-0.34925 -0.148167,-0.529167 -0.116416,-0.1905 -0.529166,-0.1905 -0.370417,0.550333 -0.846667,1.4605 -0.47625,0.910167 -0.92075,1.862667 -0.4445,0.941916 -0.73025,1.672166 -0.275167,0.719667 -0.275167,0.92075 0,0.0635 0.03175,0.09525 0.03175,0.02117 0.09525,0.05292 0.0635,0.02117 0.0635,0.03175 0,0.03175 -0.09525,0.09525 l 0.15875,0.433916 q 0.0635,0.15875 0.232834,0.275167 0.169333,0.116417 0.328083,0.116417 0.08467,-0.07408 0.211667,-0.1905 0.179916,-0.148167 0.254,-0.243417 0.08467,-0.09525 0.116416,-0.201083 0,-0.01058 0,-0.03175 0.01058,-0.03175 0.01058,-0.04233 0,-0.08467 -0.0635,-0.264583 -0.04233,-0.15875 -0.04233,-0.211667 0,-0.01058 0.01058,-0.03175 0,-0.02117 0,-0.03175 0.05292,-0.15875 0.148166,-0.370416 0.105834,-0.211667 0.232834,-0.455084 0.127,-0.243416 0.243416,-0.455083 0.127,-0.211667 0.232834,-0.359833 0.148166,0.07408 0.34925,0.264583 0.201083,0.1905 0.423333,0.455083 0.232833,0.254 0.423333,0.486834 0.1905,0.22225 0.560917,0.687916 0.328083,0.402167 0.508,0.624417 0.1905,0.22225 0.306917,0.338667 0.1905,0.1905 0.47625,0.328083 0.296333,0.148167 0.656166,0.275167 0.28575,0 0.60325,-0.08467 0.328083,-0.08467 0.656167,-0.243417 0.328083,-0.148166 0.60325,-0.338666 0.28575,-0.179917 0.497416,-0.381 -0.03175,-0.0635 -0.105833,-0.137584 -0.01058,0.01058 -0.105833,0.07408 -0.338667,0.232833 -0.582084,0.370416 -0.232833,0.148167 -0.497416,0.232834 -0.127,0 -0.127,-0.05292 0,-0.01058 0.03175,-0.02117 0.264583,-0.09525 0.529166,-0.232833 0.275167,-0.137583 0.370417,-0.211667 0,0 0.01058,-0.01058 0,0 0,0 0,-0.03175 -0.09525,-0.04233 -0.08467,-0.01058 -0.201083,-0.01058 l -0.02117,-0.02117 q 0.232834,-0.08467 0.592667,-0.179917 -0.0635,-0.08467 -0.179917,-0.15875 -0.105833,-0.08467 -0.1905,-0.105833 h -0.02117 q -0.306917,0.09525 -0.613834,0.15875 -0.306916,0.05292 -0.624416,0.05292 -0.508,0 -1.037167,-0.41275 -0.529166,-0.41275 -1.3335,-1.23825 -0.518583,-0.53975 -0.772583,-0.772583 0.179917,-0.169333 0.328083,-0.254 0.15875,-0.09525 0.264584,-0.09525 0.116416,0 0.1905,0.09525 0.1905,-0.105833 0.275166,-0.1905 0.09525,-0.09525 0.179917,-0.211666 0.07408,-0.09525 0.148167,-0.169334 0.07408,-0.07408 0.22225,-0.169333 z m 0.116417,-2.032 -0.05292,0.07408 -0.338666,-0.05292 q 0.07408,-0.04233 0.232833,-0.04233 0.09525,0 0.15875,0.02117 z m 1.608666,6.148916 q 0.01058,0.01058 0.03175,0.03175 0.04233,0.04233 0.07408,0.04233 v 0.01058 q -0.116417,0.04233 -0.28575,0.08467 -0.169334,0.05292 -0.306917,0.07408 -0.148167,-0.04233 -0.148167,-0.09525 0,-0.05292 0.09525,-0.05292 0.01058,0 0.03175,0.01058 0.02117,0 0.03175,0 z m -2.793999,-3.418417 q -0.03175,-0.05292 -0.105834,-0.05292 -0.105833,0 -0.243416,0.09525 l 0.0635,0.09525 z m -2.391834,1.397 -0.306916,0.60325 -0.05292,-0.127 0.306917,-0.560916 z"
         style="font-style:normal;font-variant:normal;font-weight:normal;font-stretch:normal;font-family:Flood;-inkscape-font-specification:Flood;fill:#71566e;fill-opacity:1;stroke-width:0.26458332"
         id="path830" />
      <path
         d="m 107.36851,78.544883 q -0.0423,0.02117 -0.10584,0.08467 -0.0635,0.0635 -0.0952,0.127 h 0.11642 z m 0.42333,-0.973667 q 0,-0.1905 -0.0635,-0.381 -0.0635,-0.1905 -0.20108,-0.47625 -0.0952,-0.211667 -0.11642,-0.264583 -0.21167,-0.15875 -0.381,-0.254 -0.15875,-0.09525 -0.29633,-0.09525 -0.16934,0 -0.61384,0.211666 -0.43391,0.211667 -0.889,0.497417 0.0212,0.04233 0.0212,0.08467 0,0.127 -0.11642,0.211666 -0.0741,-0.116416 -0.16933,-0.116416 -0.0106,0 -0.0317,0 -0.0106,0.01058 -0.0212,0.01058 -0.21166,0.116417 -0.6985,0.486833 -0.30691,0.232834 -0.40216,0.296334 -0.10584,-0.254 -0.10584,-0.624417 0,-0.169333 0.0212,-0.296333 -0.0423,-0.09525 -0.0847,-0.211667 -0.21166,-0.550333 -0.41275,-0.836083 -0.20108,-0.28575 -0.55033,-0.28575 -0.13758,0 -0.28575,0.09525 -0.13758,0.09525 -0.27517,0.232833 -0.127,0.137583 -0.24341,0.296333 -0.11642,0.148167 -0.21167,0.296334 -0.48683,0.370416 -0.89958,0.899583 -0.40217,0.529167 -0.910169,1.3335 -0.254,0.402166 -0.47625,0.762 -0.22225,0.359833 -0.433917,0.6985 -0.201083,0.338666 -0.328083,0.60325 -0.137584,0.264583 -0.137584,0.359833 0,0.08467 0.105834,0.254 0.09525,0.169333 0.254,0.34925 0.15875,0.169333 0.338666,0.28575 0.179917,0.116417 0.338667,0.116417 0.09525,0 0.169333,-0.0635 -0.05292,-0.137584 -0.05292,-0.306917 0,-0.148167 0.04233,-0.28575 0.0635,-0.169333 0.127,-0.254 0.0635,-0.09525 0.148167,-0.09525 -0.105834,0.211667 -0.105834,0.28575 0,0.0635 0.05292,0.08467 0.04233,-0.07408 0.190496,-0.34925 0.508,-0.92075 0.78317,-1.407584 0.27517,-0.486833 0.52917,-0.899583 0.26458,-0.41275 0.53975,-0.762 0.28575,-0.359833 0.5715,-0.592666 l 0.10583,0.211666 q -0.23283,0.53975 -0.40217,0.973667 -0.16933,0.433916 -0.27516,0.783166 0.11641,0.391584 0.23283,0.635 0.127,0.232834 0.30692,0.232834 0.0635,0 0.1905,-0.03175 0.0847,-0.03175 0.13758,-0.03175 0.10583,0 0.20108,0.127 l 1.87325,-1.598083 q 0.0212,-0.15875 0.21167,-0.28575 0.1905,-0.137584 0.55033,-0.306917 0.24342,-0.116417 0.32809,-0.169333 l 0.0318,0.08467 q -0.10584,0.243417 -0.42334,0.867833 -0.20108,0.402167 -0.32808,0.656167 -0.11642,0.254 -0.24342,0.518583 -0.11641,0.264584 -0.1905,0.47625 -0.0635,0.201084 -0.0635,0.306917 0,0.137583 0.0741,0.328083 0.0847,0.179917 0.21166,0.34925 0.127,0.169334 0.27517,0.275167 0.15875,0.105833 0.30692,0.105833 0.127,0 0.1905,-0.05292 l 0.17991,0.15875 q 0.0423,-0.105834 0.16934,-0.359834 0.14816,-0.3175 0.21166,-0.47625 0.0635,-0.15875 0.0635,-0.275166 0,-0.09525 -0.10583,-0.28575 -0.0423,-0.0635 -0.0529,-0.08467 l 0.0635,-0.0635 0.0741,0.09525 q 0.0106,-0.04233 0.0212,-0.127 0.0212,-0.105833 0.0423,-0.148167 0.0212,-0.05292 0.0952,-0.05292 0.0741,0 0.13758,-0.09525 0.0741,-0.09525 0.11642,-0.243417 l 0.14816,-0.529167 -0.0635,-0.169333 -0.22225,0.677333 -0.127,0.0635 0.29634,-0.931333 q 0.23283,0 0.29633,-0.137583 -0.0423,-0.01058 -0.0423,-0.01058 -0.0952,-0.03175 -0.14817,-0.0635 -0.0529,-0.03175 -0.0529,-0.105833 h 0.16934 q 0.0106,-0.01058 0.0423,-0.105833 0.0529,-0.1905 0.127,-0.3175 0.0741,-0.127 0.17992,-0.127 0.0106,0 0.0212,0.01058 0.0106,0 0.0212,0 0.0106,0 0.0212,0 0.0212,0.01058 0.0212,0.01058 0.11642,0 0.1905,-0.211667 0.0847,-0.211667 0.0847,-0.4445 z m -0.78317,0.645583 q 0.0212,-0.04233 0.0529,-0.116416 0.0423,-0.116417 0.0741,-0.15875 0.0423,-0.05292 0.11642,-0.05292 l -0.127,0.328083 z m 0.0423,0.15875 q 0,0 0,0.01058 0.0106,0.01058 0.0106,0.01058 0,0.08467 -0.1905,0.22225 l 0.11642,-0.328083 z m -0.56092,1.502833 h -0.0106 v -0.02117 q -0.0212,-0.09525 -0.0212,-0.15875 0,-0.211667 0.0847,-0.381 0.0953,-0.179917 0.254,-0.41275 l 0.0106,-0.02117 h 0.0106 z m -0.14817,0 q 0.0529,0.02117 0.0529,0.09525 0,0.137584 -0.0953,0.211667 0,-0.01058 0,-0.04233 -0.0106,-0.05292 -0.0106,-0.08467 0.0212,-0.148167 0.0529,-0.179917 z m -6.13833,0.60325 q 0.0423,0.02117 0.0423,0.05292 0,0.02117 -0.0423,0.08467 -0.0212,0.04233 -0.0318,0.0635 l -0.0635,-0.05292 z m -0.0847,0.306917 -0.11641,0.22225 -0.0635,-0.0635 0.116413,-0.201083 z"
         style="font-style:normal;font-variant:normal;font-weight:normal;font-stretch:normal;font-family:Flood;-inkscape-font-specification:Flood;fill:#71566e;fill-opacity:1;stroke-width:0.26458332"
         id="path832" />
      <path
         d="m 113.98309,76.735133 q 0,-0.02117 -0.0212,-0.02117 -0.0106,0 -0.0529,0.03175 -0.0423,0.02117 -0.0423,0.02117 -0.17992,0.08467 -0.51858,0.201083 -0.26459,0.09525 -0.35984,0.137583 0,-0.02117 -0.0106,-0.05292 0,-0.03175 0,-0.03175 0,-0.08467 0.15875,-0.127 0.13758,-0.03175 0.254,-0.08467 0.11642,-0.05292 0.24342,-0.169333 0,0 0,-0.01058 0.0106,-0.01058 0.0106,-0.01058 0,-0.02117 -0.0318,-0.02117 -0.0635,-0.01058 -0.24342,-0.0635 -0.21166,-0.0635 -0.27516,-0.0635 -0.0635,0 -0.17992,0.04233 -0.0635,0.02117 -0.0847,0.02117 l -0.0952,-0.201083 q -0.17991,0 -0.48683,-0.03175 -0.30692,-0.03175 -0.43392,-0.0635 0.1905,-0.370417 0.1905,-0.762 -0.20108,-0.0635 -0.42333,-0.116417 -0.15875,-0.04233 -0.28575,-0.0635 -0.11642,-0.02117 -0.1905,-0.02117 -0.10583,0 -0.21167,0.08467 -0.10583,0.07408 -0.254,0.232834 -0.21166,0.211666 -0.381,0.328083 -0.15875,0.105833 -0.35983,0.105833 -0.17992,0.264584 -0.17992,0.550334 0,0.116416 0.0318,0.254 -0.22225,0.47625 -0.61383,1.227666 -0.4445,0.867833 -0.635,1.312333 -0.17992,0.4445 -0.1905,0.8255 0,1.121834 0.55033,1.61925 0.55034,0.486834 1.524,0.486834 0.43392,0 0.98425,-0.15875 0.56092,-0.15875 1.23825,-0.423334 0.20109,-0.07408 0.29634,-0.232833 0.0212,-0.04233 0.0212,-0.05292 0,-0.02117 -0.0212,-0.02117 -0.0106,0 -0.0317,0 -0.0106,0.01058 -0.0212,0.01058 -0.58208,0.201083 -0.92075,0.3175 -0.32808,0.105833 -0.60325,0.179917 -0.13758,0.04233 -0.28575,0.04233 -0.17992,0 -0.30692,-0.0635 0.45509,-0.116417 0.92075,-0.243417 0.47625,-0.137583 0.85725,-0.264583 0.0423,-0.01058 0.0423,-0.03175 0,0 -0.0106,-0.01058 -0.0106,0 -0.0106,0 -0.0318,-0.02117 -0.10583,-0.0635 -0.0741,-0.04233 -0.14817,-0.09525 l 0.71967,-0.264584 q 0.0106,0 0.0212,-0.01058 0.0847,-0.04233 0.13759,-0.07408 0.0635,-0.04233 0.0635,-0.08467 -0.0106,-0.02117 -0.0318,-0.02117 -0.0106,0 -0.0318,0 -0.0212,0.01058 -0.0212,0.01058 l -0.40217,0.127 q -0.635,0.211666 -0.9525,0.306916 -0.30691,0.09525 -0.67733,0.201084 0,0 -0.0212,0 -0.0106,0 -0.0106,0 -0.0529,0 -0.14817,-0.08467 -0.0952,-0.105833 -0.17991,-0.105833 0,0.04233 -0.0635,0.08467 -0.0529,0.04233 -0.10584,0.04233 l -0.0635,-0.105834 q -0.35983,0.08467 -0.59266,0.08467 -0.33867,0 -0.53975,-0.148167 0,-0.09525 0.0423,-0.338666 0.0529,-0.243417 0.127,-0.497417 0.0741,-0.254 0.16933,-0.4445 0.0952,-0.201083 0.1905,-0.243417 0.17992,-0.08467 0.51859,-0.169333 0.34925,-0.08467 0.70908,-0.15875 0.37042,-0.07408 1.47108,-0.254 0.0318,-0.01058 0.0529,-0.01058 l 0.0741,-0.232834 q -0.127,-0.0635 -0.127,-0.201083 0,0 0,-0.03175 0.0106,-0.02117 0.0106,-0.04233 -0.16934,-0.296333 -0.28575,-0.391583 -0.11642,-0.09525 -0.33867,-0.09525 -0.10583,0 -0.29633,0.05292 -0.1905,0.05292 -0.47625,0.137584 -0.33867,0.105833 -0.51859,0.15875 -0.17991,0.04233 -0.3175,0.05292 0.15875,-0.264583 0.41275,-0.66675 0.0106,-0.02117 0.0318,-0.05292 0.35984,-0.105834 1.06892,-0.232834 0.61383,-0.116416 1.00542,-0.211666 0.40216,-0.105834 0.80433,-0.28575 0.0318,-0.02117 0.10583,-0.0635 0.16934,-0.105834 0.16934,-0.1905 z m -0.87842,-0.03175 -0.1905,0.08467 -0.0318,-0.127 q 0.0106,0 0.0318,0 0.0318,-0.01058 0.0423,-0.01058 0.13759,0 0.14817,0.05292 z m -3.683,3.185583 q 0.0317,-0.15875 0.20108,-0.15875 -0.0318,0.07408 -0.13758,0.211666 -0.0318,0.04233 -0.0529,0.0635 h -0.0106 z m -0.10583,0.899583 -0.0529,0.28575 q -0.0635,-0.05292 -0.0635,-0.169333 0,-0.07408 0.0318,-0.22225 z m 3.175,-0.0635 q 0,-0.01058 0.0106,-0.02117 0,-0.01058 0,-0.01058 0,-0.02117 -0.0212,-0.02117 0,0 -0.0106,0.01058 0,0 -0.0106,0 -0.30692,0.127 -0.65617,0.243416 -0.34925,0.105834 -0.70908,0.179917 0.0635,0.09525 0.1905,0.09525 0.127,0 0.28575,-0.07408 0.15875,-0.07408 0.3175,-0.1905 0.1905,0 0.34925,-0.05292 0.16933,-0.0635 0.254,-0.15875 z m -1.8415,-2.995083 -0.17992,0.296333 -0.13758,0.03175 0.17991,-0.296333 z m -0.381,0.47625 -0.10584,0.243417 -0.13758,0.02117 q 0.0212,-0.08467 0.10583,-0.169333 0.0847,-0.09525 0.13759,-0.09525 z m -0.762,1.862666 -0.14817,0.497417 -0.0741,-0.09525 0.11641,-0.391583 z"
         style="font-style:normal;font-variant:normal;font-weight:normal;font-stretch:normal;font-family:Flood;-inkscape-font-specification:Flood;fill:#71566e;fill-opacity:1;stroke-width:0.26458332"
         id="path834" />
      <path
         d="m 119.1595,78.068633 -0.0635,-0.04233 q 0,0 0,0 0,-0.01058 0,-0.01058 0,-0.02117 0.0847,-0.169333 0.0106,-0.02117 0.0318,-0.05292 0.0529,-0.08467 0.13759,-0.201083 0.29633,-0.4445 0.58208,-0.8255 0.28575,-0.391584 0.65617,-0.751417 l -0.22225,0.03175 q -0.0847,0.03175 -0.30692,0.306917 -0.21167,0.264583 -0.508,0.677333 -0.28575,0.41275 -0.61383,0.931333 -0.3175,0.508 -0.58209,0.973667 -0.0318,-0.127 -0.0952,-0.41275 -0.0741,-0.34925 -0.13758,-0.592667 -0.0635,-0.254 -0.127,-0.41275 -0.0529,-0.137583 -0.22225,-0.296333 -0.15875,-0.169333 -0.37042,-0.3175 -0.21166,-0.15875 -0.41275,-0.264583 -0.20108,-0.116417 -0.32808,-0.169334 -0.0847,0.08467 -0.26458,0.264584 -0.86784,0.878416 -1.48167,1.661583 -0.60325,0.772583 -1.04775,1.852083 -0.0212,0.0635 -0.0423,0.105833 -0.0847,0.211667 -0.0847,0.359834 0,0.02117 0,0.08467 0.0106,0.05292 0.0106,0.09525 l 0.0635,0.465667 q 0.0423,0.02117 0.15875,0.254 0.11642,0.243417 0.21167,0.381 0.10583,0.137583 0.23283,0.137583 h 0.29634 q 0.1905,-0.254 0.37041,-0.624416 0.1905,-0.381 0.49742,-1.068917 0.40217,-0.92075 0.61383,-1.312333 l -0.0318,-0.169334 q 0.20109,-0.359833 0.45509,-0.592666 0.26458,-0.243417 0.51858,-0.328083 l 0.0529,0.41275 q 0,0.04233 0.0106,0.09525 0,0.08467 0,0.09525 0,0.127 -0.0318,0.359833 -0.0212,0.243416 -0.0212,0.381 0,0.3175 0.11642,0.66675 0.0318,0.09525 0.0318,0.28575 0,0.0635 -0.0106,0.275166 -0.0106,0.179917 -0.0106,0.264584 0,0.03175 0.0106,0.08467 0,0.04233 0,0.07408 0.0741,0.582083 0.21166,0.804333 0.14817,0.22225 0.62442,0.34925 l 0.0635,-0.148167 0.47625,0.22225 q 0.0106,-0.02117 0.27517,-0.687916 0.48683,-1.227667 0.68791,-1.8415 0.0212,-0.05292 0.10584,-0.127 0.0847,-0.0635 0.0847,-0.09525 0.0318,-0.07408 0.0529,-0.211667 0.0212,-0.127 0.0423,-0.169333 0.0635,-0.105834 0.17992,-0.275167 0.16933,-0.232833 0.23283,-0.370416 0.0741,-0.148167 0.0847,-0.338667 0,0 0.0106,-0.01058 0.0106,0 0.0212,0 0.0106,0 0.0423,0.02117 0.0318,0.02117 0.0529,0.02117 0.0212,0 0.0423,-0.03175 0.1905,-0.264583 0.45509,-0.529167 0.27516,-0.275166 0.56091,-0.508 0.29634,-0.232833 0.5715,-0.41275 0.27517,-0.179916 0.48684,-0.275166 l -0.29634,-0.3175 q -0.0529,0.03175 -0.16933,0.07408 -0.11642,0.03175 -0.16933,0.03175 l -0.0212,-0.04233 0.21167,-0.148167 q -0.24342,-0.169333 -0.85725,-0.169333 -0.35984,0.02117 -0.55034,0.137583 -0.22225,0.211667 -0.46566,0.497417 -0.24342,0.28575 -0.45509,0.5715 -0.21166,0.275166 -0.39158,0.529166 -0.17992,0.254 -0.32808,0.486834 z m 1.51341,-0.370417 -0.22225,0.338667 q -0.0318,-0.02117 -0.0318,-0.0635 0,-0.04233 0.0318,-0.105834 0.0423,-0.07408 0.11642,-0.1905 0,0 0.0318,-0.04233 0,0 0.0106,0 0,-0.01058 0.0106,-0.01058 0.0529,0 0.0529,0.07408 z m -0.21166,-1.23825 q 0.0952,-0.148167 0.17991,-0.22225 l 0.0847,0.04233 -0.17992,0.232834 q -0.0529,0 -0.0847,-0.05292 z m 1.41816,-0.22225 q 0,0.08467 -0.0317,0.127 -0.0318,0.04233 -0.0953,0.08467 -0.0318,0.01058 -0.0529,0.03175 l -0.0212,-0.09525 z m -2.06375,3.4925 q -0.0106,0 -0.0212,0 -0.0106,-0.01058 -0.0212,-0.01058 -0.0529,0 -0.0741,0.07408 -0.0212,0.07408 -0.0318,0.22225 v 0.01058 l 0.0952,0.0635 z m 1.13242,-2.413 -0.1905,0.275167 q -0.0106,-0.05292 -0.0953,-0.05292 l 0.21167,-0.275167 q 0.0212,-0.02117 0.0318,-0.02117 0.0529,0 0.0529,0.05292 0,0 -0.0106,0.01058 0,0.01058 0,0.01058 z m -4.2545,-0.529167 q -0.0106,0.01058 -0.0529,0.05292 -0.11641,0.15875 -0.1905,0.15875 -0.0423,0 -0.0741,-0.03175 l 0.23283,-0.243417 z"
         style="font-style:normal;font-variant:normal;font-weight:normal;font-stretch:normal;font-family:Flood;-inkscape-font-specification:Flood;fill:#71566e;fill-opacity:1;stroke-width:0.26458332"
         id="path836" />
      <path
         d="m 127.64634,76.735133 q 0,-0.02117 -0.0212,-0.02117 -0.0106,0 -0.0529,0.03175 -0.0423,0.02117 -0.0423,0.02117 -0.17992,0.08467 -0.51858,0.201083 -0.26459,0.09525 -0.35984,0.137583 0,-0.02117 -0.0106,-0.05292 0,-0.03175 0,-0.03175 0,-0.08467 0.15875,-0.127 0.13758,-0.03175 0.254,-0.08467 0.11642,-0.05292 0.24342,-0.169333 0,0 0,-0.01058 0.0106,-0.01058 0.0106,-0.01058 0,-0.02117 -0.0318,-0.02117 -0.0635,-0.01058 -0.24342,-0.0635 -0.21166,-0.0635 -0.27516,-0.0635 -0.0635,0 -0.17992,0.04233 -0.0635,0.02117 -0.0847,0.02117 l -0.0953,-0.201083 q -0.17991,0 -0.48683,-0.03175 -0.30692,-0.03175 -0.43392,-0.0635 0.1905,-0.370417 0.1905,-0.762 -0.20108,-0.0635 -0.42333,-0.116417 -0.15875,-0.04233 -0.28575,-0.0635 -0.11642,-0.02117 -0.1905,-0.02117 -0.10583,0 -0.21167,0.08467 -0.10583,0.07408 -0.254,0.232834 -0.21166,0.211666 -0.381,0.328083 -0.15875,0.105833 -0.35983,0.105833 -0.17992,0.264584 -0.17992,0.550334 0,0.116416 0.0318,0.254 -0.22225,0.47625 -0.61383,1.227666 -0.4445,0.867833 -0.635,1.312333 -0.17992,0.4445 -0.1905,0.8255 0,1.121834 0.55033,1.61925 0.55034,0.486834 1.524,0.486834 0.43392,0 0.98425,-0.15875 0.56092,-0.15875 1.23825,-0.423334 0.20109,-0.07408 0.29634,-0.232833 0.0212,-0.04233 0.0212,-0.05292 0,-0.02117 -0.0212,-0.02117 -0.0106,0 -0.0318,0 -0.0106,0.01058 -0.0212,0.01058 -0.58208,0.201083 -0.92075,0.3175 -0.32808,0.105833 -0.60325,0.179917 -0.13758,0.04233 -0.28575,0.04233 -0.17992,0 -0.30692,-0.0635 0.45509,-0.116417 0.92075,-0.243417 0.47625,-0.137583 0.85725,-0.264583 0.0423,-0.01058 0.0423,-0.03175 0,0 -0.0106,-0.01058 -0.0106,0 -0.0106,0 -0.0318,-0.02117 -0.10583,-0.0635 -0.0741,-0.04233 -0.14817,-0.09525 l 0.71967,-0.264584 q 0.0106,0 0.0212,-0.01058 0.0847,-0.04233 0.13759,-0.07408 0.0635,-0.04233 0.0635,-0.08467 -0.0106,-0.02117 -0.0317,-0.02117 -0.0106,0 -0.0318,0 -0.0212,0.01058 -0.0212,0.01058 l -0.40217,0.127 q -0.635,0.211666 -0.9525,0.306916 -0.30691,0.09525 -0.67733,0.201084 0,0 -0.0212,0 -0.0106,0 -0.0106,0 -0.0529,0 -0.14817,-0.08467 -0.0952,-0.105833 -0.17991,-0.105833 0,0.04233 -0.0635,0.08467 -0.0529,0.04233 -0.10584,0.04233 l -0.0635,-0.105834 q -0.35983,0.08467 -0.59266,0.08467 -0.33867,0 -0.53975,-0.148167 0,-0.09525 0.0423,-0.338666 0.0529,-0.243417 0.127,-0.497417 0.0741,-0.254 0.16933,-0.4445 0.0953,-0.201083 0.1905,-0.243417 0.17992,-0.08467 0.51859,-0.169333 0.34925,-0.08467 0.70908,-0.15875 0.37042,-0.07408 1.47108,-0.254 0.0318,-0.01058 0.0529,-0.01058 l 0.0741,-0.232834 q -0.127,-0.0635 -0.127,-0.201083 0,0 0,-0.03175 0.0106,-0.02117 0.0106,-0.04233 -0.16934,-0.296333 -0.28575,-0.391583 -0.11642,-0.09525 -0.33867,-0.09525 -0.10583,0 -0.29633,0.05292 -0.1905,0.05292 -0.47625,0.137584 -0.33867,0.105833 -0.51859,0.15875 -0.17991,0.04233 -0.3175,0.05292 0.15875,-0.264583 0.41275,-0.66675 0.0106,-0.02117 0.0318,-0.05292 0.35984,-0.105834 1.06892,-0.232834 0.61383,-0.116416 1.00542,-0.211666 0.40216,-0.105834 0.80433,-0.28575 0.0317,-0.02117 0.10583,-0.0635 0.16934,-0.105834 0.16934,-0.1905 z m -0.87842,-0.03175 -0.1905,0.08467 -0.0318,-0.127 q 0.0106,0 0.0318,0 0.0318,-0.01058 0.0423,-0.01058 0.13759,0 0.14817,0.05292 z m -3.683,3.185583 q 0.0318,-0.15875 0.20108,-0.15875 -0.0318,0.07408 -0.13758,0.211666 -0.0318,0.04233 -0.0529,0.0635 h -0.0106 z m -0.10583,0.899583 -0.0529,0.28575 q -0.0635,-0.05292 -0.0635,-0.169333 0,-0.07408 0.0318,-0.22225 z m 3.175,-0.0635 q 0,-0.01058 0.0106,-0.02117 0,-0.01058 0,-0.01058 0,-0.02117 -0.0212,-0.02117 0,0 -0.0106,0.01058 0,0 -0.0106,0 -0.30692,0.127 -0.65617,0.243416 -0.34925,0.105834 -0.70908,0.179917 0.0635,0.09525 0.1905,0.09525 0.127,0 0.28575,-0.07408 0.15875,-0.07408 0.3175,-0.1905 0.1905,0 0.34925,-0.05292 0.16933,-0.0635 0.254,-0.15875 z m -1.8415,-2.995083 -0.17992,0.296333 -0.13758,0.03175 0.17991,-0.296333 z m -0.381,0.47625 -0.10584,0.243417 -0.13758,0.02117 q 0.0212,-0.08467 0.10583,-0.169333 0.0847,-0.09525 0.13759,-0.09525 z m -0.762,1.862666 -0.14817,0.497417 -0.0741,-0.09525 0.11641,-0.391583 z"
         style="font-style:normal;font-variant:normal;font-weight:normal;font-stretch:normal;font-family:Flood;-inkscape-font-specification:Flood;fill:#71566e;fill-opacity:1;stroke-width:0.26458332"
         id="path838" />
      <path
         d="m 134.96058,80.936716 q 0.0741,-0.179917 0.23283,-0.243417 0,0 0.0106,-0.01058 0,0 0,0 0,-0.03175 -0.10583,-0.03175 -0.42333,0 -1.06892,0.0635 -0.64558,0.05292 -1.4605,0.137583 l -0.3175,0.03175 -0.0106,-0.05292 q 0.0529,-0.04233 0.20108,-0.08467 0.14817,-0.04233 0.33867,-0.07408 0.20108,-0.03175 0.381,-0.05292 0.1905,-0.02117 0.28575,-0.03175 0.0847,-0.01058 0.16933,-0.01058 0.0952,-0.01058 0.254,-0.02117 0.0212,0 0.14817,0 0.11642,-0.04233 0.11642,-0.232834 -0.24342,0.01058 -0.74084,0.01058 -0.42333,0 -0.73025,0.02117 -0.29633,0.02117 -0.635,0.08467 0,0.127 -0.10583,0.127 -0.0847,0 -0.35983,-0.09525 -0.0106,0 -0.0318,-0.01058 -0.254,0.02117 -0.39159,0.02117 l -0.0635,0.105834 -0.0847,-0.105834 q -0.58209,0.02117 -1.00542,0.02117 -0.4445,0 -0.80433,-0.02117 0.0635,-0.127 0.1905,-0.254 l 0.0847,0.08467 0.11642,-0.09525 v -0.15875 q 0.15875,-0.116417 0.33867,-0.1905 0.1905,-0.07408 0.33866,-0.07408 l 0.0952,-0.201084 q 0.24342,-0.15875 0.84667,-0.508 0.42333,-0.232833 0.66675,-0.380999 0.24342,-0.15875 0.381,-0.28575 l 0.0847,0.116416 q 0.11641,-0.179916 0.26458,-0.3175 0.14817,-0.137583 0.39158,-0.328083 0.28575,-0.232833 0.43392,-0.391583 0.15875,-0.169334 0.22225,-0.391584 h 0.15875 v -0.15875 l -0.127,-0.116416 q 0,-0.264584 -0.0317,-0.497417 -0.0212,-0.232833 -0.0953,-0.4445 -0.24342,-0.07408 -0.62442,-0.116417 -0.381,-0.04233 -0.74083,-0.04233 -0.35983,0 -0.80433,0.02117 -0.43392,0.02117 -0.889,0.07408 -0.45509,0.05292 -0.93134,0.15875 -0.46566,0.09525 -0.83608,0.243417 0.0212,0.0635 0.0212,0.105833 0,0.05292 -0.0529,0.116417 -0.0529,0.0635 -0.0635,0.116416 0,0.0635 0.0635,0.201084 0.0741,0.137583 0.17992,0.296333 0.11641,0.15875 0.21166,0.264583 0.10584,0.105834 0.15875,0.116417 0.0212,0 0.0635,0 0.0318,0.01058 0.0529,0.01058 0.0635,0 0.1905,-0.02117 0.11642,-0.01058 0.17992,-0.01058 0.0212,-0.116416 0.0847,-0.148166 0.13759,0.127 0.43392,0.127 0.15875,0 0.51858,-0.05292 0.37042,-0.05292 0.55034,-0.05292 0.15875,0 0.27516,0.03175 -0.33866,0.28575 -0.762,0.5715 -0.42333,0.275167 -1.11125,0.709084 -0.5715,0.349249 -0.94191,0.592666 -0.35984,0.232833 -0.67734,0.486833 -0.3175,0.254 -0.508,0.508 -0.17991,0.243417 -0.17991,0.465667 0,0.1905 0.10583,0.381 0.10583,0.179917 0.35983,0.486833 0.11642,0.148167 0.1905,0.243417 l 1.8415,0.232833 v -0.148166 q 0.51859,0.07408 0.92075,0.07408 0.21167,-0.15875 0.40217,-0.254 0.20108,-0.105833 0.39158,-0.105833 0.254,0 0.42334,0.211666 0.23283,-0.04233 0.3175,-0.05292 0.0847,-0.01058 0.27516,-0.03175 0.13759,-0.02117 0.17992,-0.02117 l 0.0212,-0.127 q 0.0106,0 0.0423,0 0.0212,-0.01058 0.0423,-0.01058 0.15875,0 0.1905,0.0635 0.0635,-0.05292 0.127,-0.15875 0.0635,-0.148167 0.1905,-0.169334 0.45509,-0.08467 1.016,-0.127 0.56092,-0.05292 1.13242,-0.07408 0,-0.09525 -0.11642,-0.148167 z m 0.22225,-0.433917 q 0,0 0.0106,-0.03175 0,-0.02117 0,-0.03175 0,-0.09525 -0.0952,-0.105833 -0.0847,0 -0.21167,0 -0.33866,-0.01058 -0.64558,-0.01058 0,0.04233 0.0317,0.09525 0.0317,0.04233 0.127,0.105834 0.508,-0.02117 0.78317,-0.02117 z m 0.27516,0.751417 q -0.0635,-0.02117 -0.33866,-0.02117 -0.22225,0 -0.508,0.02117 -0.28575,0.01058 -0.55034,0.05292 -0.26458,0.03175 -0.4445,0.08467 -0.17991,0.05292 -0.20108,0.127 0.60325,-0.07408 1.10067,-0.116417 0.508,-0.05292 0.889,-0.05292 0.0847,0 0.0847,-0.05292 0,-0.03175 -0.0318,-0.04233 z m 0.0847,-0.762 q 0.127,0 0.127,-0.04233 l -0.0106,-0.01058 q -0.11642,-0.09525 -0.23284,-0.09525 -0.0635,0.01058 -0.10583,0.148167 z m -3.937,1.375833 q -0.127,-0.09525 -0.24342,-0.09525 -0.14816,0 -0.254,0.148167 0.26459,-0.02117 0.49742,-0.04233 z m 0.13758,-4.677833 -0.0847,0.07408 -0.13759,-0.211666 0.10584,-0.03175 z m 4.45559,3.84175 q 0.10583,0 0.10583,-0.03175 0,-0.04233 -0.0741,-0.05292 -0.0635,-0.02117 -0.20109,-0.03175 -0.0423,0 -0.0635,0 l -0.30691,0.01058 q 0,0.08467 0.0741,0.137584 z"
         style="font-style:normal;font-variant:normal;font-weight:normal;font-stretch:normal;font-family:Flood;-inkscape-font-specification:Flood;fill:#71566e;fill-opacity:1;stroke-width:0.26458332"
         id="path840" />
      <path
         d="m 140.04868,76.735133 q 0,-0.02117 -0.0212,-0.02117 -0.0106,0 -0.0529,0.03175 -0.0423,0.02117 -0.0423,0.02117 -0.17992,0.08467 -0.51858,0.201083 -0.26459,0.09525 -0.35984,0.137583 0,-0.02117 -0.0106,-0.05292 0,-0.03175 0,-0.03175 0,-0.08467 0.15875,-0.127 0.13758,-0.03175 0.254,-0.08467 0.11642,-0.05292 0.24342,-0.169333 0,0 0,-0.01058 0.0106,-0.01058 0.0106,-0.01058 0,-0.02117 -0.0318,-0.02117 -0.0635,-0.01058 -0.24342,-0.0635 -0.21166,-0.0635 -0.27516,-0.0635 -0.0635,0 -0.17992,0.04233 -0.0635,0.02117 -0.0847,0.02117 l -0.0953,-0.201083 q -0.17991,0 -0.48683,-0.03175 -0.30692,-0.03175 -0.43392,-0.0635 0.1905,-0.370417 0.1905,-0.762 -0.20108,-0.0635 -0.42333,-0.116417 -0.15875,-0.04233 -0.28575,-0.0635 -0.11642,-0.02117 -0.1905,-0.02117 -0.10583,0 -0.21167,0.08467 -0.10583,0.07408 -0.254,0.232834 -0.21166,0.211666 -0.381,0.328083 -0.15875,0.105833 -0.35983,0.105833 -0.17992,0.264584 -0.17992,0.550334 0,0.116416 0.0317,0.254 -0.22225,0.47625 -0.61383,1.227666 -0.4445,0.867833 -0.635,1.312333 -0.17992,0.4445 -0.1905,0.8255 0,1.121834 0.55033,1.61925 0.55034,0.486834 1.524,0.486834 0.43392,0 0.98425,-0.15875 0.56092,-0.15875 1.23825,-0.423334 0.20109,-0.07408 0.29634,-0.232833 0.0212,-0.04233 0.0212,-0.05292 0,-0.02117 -0.0212,-0.02117 -0.0106,0 -0.0317,0 -0.0106,0.01058 -0.0212,0.01058 -0.58208,0.201083 -0.92075,0.3175 -0.32808,0.105833 -0.60325,0.179917 -0.13758,0.04233 -0.28575,0.04233 -0.17992,0 -0.30692,-0.0635 0.45509,-0.116417 0.92075,-0.243417 0.47625,-0.137583 0.85725,-0.264583 0.0423,-0.01058 0.0423,-0.03175 0,0 -0.0106,-0.01058 -0.0106,0 -0.0106,0 -0.0317,-0.02117 -0.10583,-0.0635 -0.0741,-0.04233 -0.14817,-0.09525 l 0.71967,-0.264584 q 0.0106,0 0.0212,-0.01058 0.0847,-0.04233 0.13759,-0.07408 0.0635,-0.04233 0.0635,-0.08467 -0.0106,-0.02117 -0.0317,-0.02117 -0.0106,0 -0.0317,0 -0.0212,0.01058 -0.0212,0.01058 l -0.40217,0.127 q -0.635,0.211666 -0.9525,0.306916 -0.30691,0.09525 -0.67733,0.201084 0,0 -0.0212,0 -0.0106,0 -0.0106,0 -0.0529,0 -0.14817,-0.08467 -0.0953,-0.105833 -0.17991,-0.105833 0,0.04233 -0.0635,0.08467 -0.0529,0.04233 -0.10584,0.04233 l -0.0635,-0.105834 q -0.35983,0.08467 -0.59266,0.08467 -0.33867,0 -0.53975,-0.148167 0,-0.09525 0.0423,-0.338666 0.0529,-0.243417 0.127,-0.497417 0.0741,-0.254 0.16933,-0.4445 0.0952,-0.201083 0.1905,-0.243417 0.17992,-0.08467 0.51859,-0.169333 0.34925,-0.08467 0.70908,-0.15875 0.37042,-0.07408 1.47108,-0.254 0.0317,-0.01058 0.0529,-0.01058 l 0.0741,-0.232834 q -0.127,-0.0635 -0.127,-0.201083 0,0 0,-0.03175 0.0106,-0.02117 0.0106,-0.04233 -0.16934,-0.296333 -0.28575,-0.391583 -0.11642,-0.09525 -0.33867,-0.09525 -0.10583,0 -0.29633,0.05292 -0.1905,0.05292 -0.47625,0.137584 -0.33867,0.105833 -0.51859,0.15875 -0.17991,0.04233 -0.3175,0.05292 0.15875,-0.264583 0.41275,-0.66675 0.0106,-0.02117 0.0317,-0.05292 0.35984,-0.105834 1.06892,-0.232834 0.61383,-0.116416 1.00542,-0.211666 0.40216,-0.105834 0.80433,-0.28575 0.0318,-0.02117 0.10583,-0.0635 0.16934,-0.105834 0.16934,-0.1905 z m -0.87842,-0.03175 -0.1905,0.08467 -0.0317,-0.127 q 0.0106,0 0.0317,0 0.0317,-0.01058 0.0423,-0.01058 0.13759,0 0.14817,0.05292 z m -3.683,3.185583 q 0.0318,-0.15875 0.20108,-0.15875 -0.0318,0.07408 -0.13758,0.211666 -0.0317,0.04233 -0.0529,0.0635 h -0.0106 z m -0.10583,0.899583 -0.0529,0.28575 q -0.0635,-0.05292 -0.0635,-0.169333 0,-0.07408 0.0318,-0.22225 z m 3.175,-0.0635 q 0,-0.01058 0.0106,-0.02117 0,-0.01058 0,-0.01058 0,-0.02117 -0.0212,-0.02117 0,0 -0.0106,0.01058 0,0 -0.0106,0 -0.30692,0.127 -0.65617,0.243416 -0.34925,0.105834 -0.70908,0.179917 0.0635,0.09525 0.1905,0.09525 0.127,0 0.28575,-0.07408 0.15875,-0.07408 0.3175,-0.1905 0.1905,0 0.34925,-0.05292 0.16933,-0.0635 0.254,-0.15875 z m -1.8415,-2.995083 -0.17992,0.296333 -0.13758,0.03175 0.17991,-0.296333 z m -0.381,0.47625 -0.10584,0.243417 -0.13758,0.02117 q 0.0212,-0.08467 0.10583,-0.169333 0.0847,-0.09525 0.13759,-0.09525 z m -0.762,1.862666 -0.14817,0.497417 -0.0741,-0.09525 0.11641,-0.391583 z"
         style="font-style:normal;font-variant:normal;font-weight:normal;font-stretch:normal;font-family:Flood;-inkscape-font-specification:Flood;fill:#71566e;fill-opacity:1;stroke-width:0.26458332"
         id="path842" />
      <path
         d="m 144.65359,75.697966 q -0.1905,-0.02117 -0.43392,-0.03175 -0.23283,-0.01058 -0.4445,-0.01058 -0.49742,0 -1.03717,0.148166 -0.53975,0.148167 -1.00541,0.402167 -0.46567,0.243417 -0.762,0.560917 -0.29634,0.306916 -0.3175,0.624416 0,0.15875 0.10583,0.613834 0.0529,0.243416 0.0741,0.338666 0.0317,0.1905 0.16934,0.359834 0.13758,0.169333 0.3175,0.317499 0.0635,-0.05292 0.127,-0.05292 0.13758,0 0.47625,0.455083 0.0317,-0.02117 0.0635,-0.02117 0.0741,0 0.14816,0.08467 0.0847,0.07408 0.21167,0.232833 0.15875,0.211667 0.24342,0.296334 v 0.105833 q -0.46567,0.41275 -1.10067,0.645583 -0.635,0.232834 -1.05833,0.232834 -0.0847,0 -0.1905,-0.08467 -0.10584,-0.08467 -0.26459,-0.254 -0.13758,-0.137583 -0.1905,-0.179917 -0.15875,0.116417 -0.254,0.243417 -0.0952,0.127 -0.0952,0.306917 0,0.15875 0.23284,0.486833 0,0.01058 -0.0106,0.04233 0,0.04233 0,0.05292 0,0.148167 0.11642,0.264583 0.11642,0.116417 0.35983,0.169334 0.1905,0.1905 0.37042,0.296333 0.17992,0.116417 0.28575,0.116417 0.15875,0 0.47625,-0.07408 0.32808,-0.07408 0.67733,-0.211666 0,-0.275167 0.21167,-0.275167 0.11642,0 0.28575,0.07408 0.49742,-0.22225 0.91017,-0.497416 0.41275,-0.28575 0.635,-0.582084 l 0.17991,0.04233 0.0635,-0.846667 q 0,-0.243417 -0.127,-0.508 -0.127,-0.264583 -0.33866,-0.497417 l -0.11642,0.07408 q -0.20108,-0.22225 -0.71967,-0.508 -0.3175,-0.1905 -0.49741,-0.306917 l -0.4445,-0.3175 v -0.15875 q 0.34925,-0.254 0.635,-0.41275 0.29633,-0.169333 0.5715,-0.264583 0.28575,-0.105833 0.59266,-0.148167 0.3175,-0.04233 0.73025,-0.04233 0.0212,0.02117 0.0212,0.04233 0,0.02117 -0.0423,0.07408 -0.0741,0.0635 -0.0741,0.127 0,0.07408 0.0741,0.169333 0.29633,-0.0635 0.52916,-0.243417 0.23284,-0.1905 0.23284,-0.359833 0,-0.08467 -0.0741,-0.148167 0,-0.6985 -0.53975,-0.836083 z m 0.27516,1.778 0.0423,-0.03175 q 0.0847,-0.07408 0.10583,-0.105833 0.0212,-0.03175 0.0212,-0.116417 l -0.26459,0.179917 z m -2.159,-0.232833 -0.78316,0.433916 q 0.0106,-0.116416 0.22225,-0.22225 0.22225,-0.116416 0.56091,-0.22225 z m -0.9525,4.868333 -0.3175,0.105833 -0.0529,-0.07408 0.37041,-0.15875 z"
         style="font-style:normal;font-variant:normal;font-weight:normal;font-stretch:normal;font-family:Flood;-inkscape-font-specification:Flood;fill:#71566e;fill-opacity:1;stroke-width:0.26458332"
         id="path844" />
    </g>
  </g>
</svg>
